<svg width="213" height="82" viewBox="0 0 213 82" fill="none" xmlns="http://www.w3.org/2000/svg">
<path d="M43.0396 80.5943C37.7637 80.5943 32.6267 79.5635 27.8137 77.5018C23.1395 75.4869 18.9744 72.6286 15.3646 69.0206C11.7548 65.3658 8.93175 61.1486 6.98803 56.416C4.95174 51.5429 3.93359 46.3418 3.93359 41C3.93359 35.6583 4.95174 30.4572 6.98803 25.584C8.97803 20.8515 11.7548 16.6343 15.3646 12.9795C18.9744 9.37148 23.1395 6.51319 27.8137 4.49833C32.6267 2.43662 37.7175 1.40576 43.0396 1.40576C48.3617 1.40576 53.4524 2.43662 58.2655 4.49833C62.9397 6.51319 67.1048 9.32462 70.7146 12.9795C74.3244 16.6343 77.1474 20.8515 79.0911 25.584C81.1274 30.4572 82.1456 35.6583 82.1456 41C82.1456 46.3418 81.1274 51.5429 79.0911 56.416C77.1011 61.1486 74.3244 65.3658 70.7146 69.0206C67.1048 72.6755 62.9397 75.5338 58.2655 77.5018C53.4061 79.5635 48.3154 80.5943 43.0396 80.5943ZM43.0396 2.43662C22.0288 2.43662 4.95174 19.7269 4.95174 41C4.95174 62.2732 22.0288 79.5635 43.0396 79.5635C64.0504 79.5635 81.1274 62.2732 81.1274 41C81.1274 19.7269 64.0041 2.43662 43.0396 2.43662Z" fill="#2767B1"/>
<path d="M43.0391 78.0172C63.231 78.0172 79.5997 61.4441 79.5997 41C79.5997 20.556 63.231 3.98291 43.0391 3.98291C22.8472 3.98291 6.47852 20.556 6.47852 41C6.47852 61.4441 22.8472 78.0172 43.0391 78.0172Z" fill="#E3F4FC"/>
<path d="M43.0389 78.1109C38.087 78.1109 33.274 77.1269 28.7849 75.2057C24.4346 73.3314 20.5009 70.6606 17.1225 67.24C13.7441 63.8194 11.1062 59.8366 9.25505 55.432C7.3576 50.84 6.38574 46.0137 6.38574 41C6.38574 35.9863 7.3576 31.1132 9.25505 26.568C11.1062 22.1634 13.7441 18.1806 17.1225 14.76C20.5009 11.3394 24.4346 8.66859 28.7849 6.7943C33.3203 4.87316 38.087 3.88916 43.0389 3.88916C47.9908 3.88916 52.8038 4.87316 57.2929 6.7943C61.6432 8.66859 65.5769 11.3394 68.9553 14.76C72.3337 18.1806 74.9716 22.1634 76.8228 26.568C78.7202 31.16 79.6921 35.9863 79.6921 41C79.6921 46.0137 78.7202 50.8869 76.8228 55.432C74.9716 59.8366 72.3337 63.8194 68.9553 67.24C65.5769 70.6606 61.6432 73.3314 57.2929 75.2057C52.7576 77.1269 47.9908 78.1109 43.0389 78.1109ZM43.0389 4.07659C22.9074 4.07659 6.57086 20.6172 6.57086 41C6.57086 61.3829 22.9074 77.9234 43.0389 77.9234C63.1704 77.9234 79.507 61.3829 79.507 41C79.507 20.6172 63.1241 4.07659 43.0389 4.07659Z" fill="#2767B1"/>
<path d="M64.3746 54.1202L41.0961 41.0002L21.7051 52.7614L43.4101 66.9122L64.3746 54.1202Z" fill="#4590CD"/>
<path d="M63.4953 27.4116L43.3638 15.0881L21.7051 29.3327V52.7613L63.4953 27.4116Z" fill="#2767B1"/>
<path d="M95.9369 59.2742C97.279 59.5554 98.2509 59.9771 98.8988 60.6331C99.5467 61.2891 99.8707 62.1325 99.8707 63.1634C99.8707 64.3348 99.5004 65.272 98.7137 65.8342C97.9269 66.4434 96.7699 66.7245 95.1964 66.7245H88.5322V65.8342H88.7173C89.3653 65.7874 89.7355 65.6937 89.8743 65.5062C90.0132 65.3188 90.0594 64.8034 90.0594 63.96V55.1977C90.0594 54.3542 90.0132 53.792 89.8743 53.6514C89.7355 53.464 89.3653 53.3702 88.7173 53.3234H88.5322V52.4331H95.1502C96.5385 52.4331 97.5567 52.7142 98.2509 53.2297C98.9451 53.7451 99.269 54.5417 99.269 55.6194C99.269 56.4628 98.9913 57.1657 98.436 57.8217C97.8806 58.3371 97.0476 58.8525 95.9369 59.2742ZM92.9288 58.8525H93.5304C94.5023 58.8525 95.1964 58.6182 95.6592 58.1028C96.122 57.6342 96.3534 56.8845 96.3534 55.9005C96.3534 55.0102 96.122 54.3074 95.6592 53.8857C95.1964 53.4171 94.456 53.2297 93.5304 53.2297H92.9288V58.8525ZM92.9288 59.8365V63.9131C92.9288 64.6628 93.0213 65.1314 93.2064 65.3188C93.3915 65.5531 93.7618 65.6468 94.3634 65.6468C95.1039 65.6468 95.7518 65.4125 96.2146 64.8971C96.6774 64.3817 96.9088 63.7725 96.9088 62.9291C96.9088 61.992 96.5848 61.2422 95.9832 60.68C95.3816 60.1177 94.5485 59.8365 93.5767 59.8365H92.9288Z" fill="#232323"/>
<path d="M114.448 62.3668L113.708 63.913C113.338 64.6627 113.199 65.225 113.199 65.5062C113.199 65.7405 113.384 65.8342 113.801 65.8342C113.847 65.8342 113.986 65.8342 114.171 65.881H114.356V66.7713H110.561V65.881H110.746C111.255 65.8342 111.579 65.7873 111.718 65.6468C111.857 65.5062 112.135 64.9439 112.597 63.9599L117.919 52.2456H118.891L124.26 63.9599C124.722 64.9439 125.046 65.4593 125.139 65.5999C125.278 65.7405 125.602 65.8342 126.157 65.881H126.296V66.7713H120.372V65.881H120.557C121.344 65.8342 121.761 65.6936 121.807 65.5062C121.807 65.3188 121.622 64.8033 121.252 63.9599L120.557 62.4136L114.448 62.3668ZM114.911 61.3827H120.002L117.41 55.7599L114.911 61.3827Z" fill="#232323"/>
<path d="M137.033 66.5372V63.5383H138.467V63.7726C138.514 64.616 138.699 65.1783 138.976 65.4126C139.578 65.8812 140.272 66.1154 141.059 66.1154C141.799 66.1154 142.447 65.8812 142.91 65.4126C143.373 64.944 143.604 64.3349 143.604 63.5383C143.604 62.9292 143.466 62.4606 143.188 62.0857C142.91 61.7109 142.401 61.336 141.568 60.8674L140.596 60.352C138.236 59.04 137.033 57.5874 137.033 55.9943C137.033 54.776 137.449 53.792 138.329 53.0423C139.208 52.2926 140.319 51.9177 141.753 51.9177C142.864 51.9177 144.16 52.152 145.594 52.5737V55.4789H144.16V55.2914C144.113 54.4012 143.975 53.8389 143.743 53.6046C143.28 53.136 142.679 52.9017 141.938 52.9017C141.337 52.9017 140.828 53.136 140.365 53.5577C139.948 53.9794 139.717 54.5417 139.717 55.1977C139.717 55.7132 139.856 56.088 140.133 56.4629C140.411 56.7909 140.92 57.2126 141.707 57.6343L142.679 58.1966C144.067 58.9932 145.039 59.7429 145.548 60.3989C146.057 61.0549 146.335 61.8046 146.335 62.7417C146.335 64.0537 145.872 65.1314 144.9 65.8812C143.928 66.6777 142.632 67.0526 140.966 67.0526C139.856 67.0994 138.56 66.912 137.033 66.5372Z" fill="#232323"/>
<path d="M163.319 66.7245H157.257V65.8342H157.442C158.09 65.7874 158.46 65.6937 158.599 65.5062C158.738 65.3188 158.784 64.8034 158.784 63.96V55.1977C158.784 54.3542 158.738 53.792 158.599 53.6514C158.46 53.464 158.09 53.3702 157.442 53.3234H157.257V52.4331H163.319V53.3234H163.134C162.486 53.3702 162.07 53.5108 161.977 53.6514C161.838 53.8388 161.792 54.3542 161.792 55.1977V63.96C161.792 64.8034 161.838 65.3657 161.977 65.5062C162.116 65.6937 162.486 65.7874 163.134 65.8342H163.319V66.7245Z" fill="#232323"/>
<path d="M186.737 66.1623C185.256 66.7715 183.683 67.0995 182.017 67.0995C179.61 67.0995 177.759 66.4435 176.417 65.0846C175.075 63.7726 174.427 61.8983 174.427 59.5086C174.427 57.1189 175.075 55.2446 176.37 53.9326C177.666 52.6206 179.517 51.9646 181.924 51.9646C183.359 51.9646 184.932 52.1989 186.552 52.6206V55.5726H185.117V55.3852C185.117 54.5417 184.978 53.9795 184.701 53.7452C184.053 53.1829 183.127 52.9486 181.97 52.9486C180.582 52.9486 179.471 53.5109 178.731 54.6355C177.944 55.76 177.574 57.4 177.574 59.4617C177.574 61.6172 177.99 63.2103 178.87 64.288C179.749 65.3657 180.998 65.8812 182.711 65.8812C183.868 65.8812 185.256 65.5063 186.783 64.8035L186.737 66.1623Z" fill="#232323"/>
<path d="M198.445 66.5372V63.5383H199.88V63.7726C199.926 64.616 200.111 65.1783 200.389 65.4126C200.991 65.8812 201.685 66.1154 202.472 66.1154C203.212 66.1154 203.86 65.8812 204.323 65.4126C204.786 64.944 205.017 64.3349 205.017 63.5383C205.017 62.9292 204.878 62.4606 204.6 62.0857C204.323 61.7109 203.814 61.336 202.981 60.8674L202.009 60.352C199.649 59.04 198.445 57.5874 198.445 55.9943C198.445 54.776 198.862 53.792 199.741 53.0423C200.62 52.2926 201.731 51.9177 203.166 51.9177C204.276 51.9177 205.572 52.152 207.007 52.5737V55.4789H205.572V55.2914C205.526 54.4012 205.387 53.8389 205.156 53.6046C204.693 53.136 204.091 52.9017 203.351 52.9017C202.749 52.9017 202.24 53.136 201.777 53.5577C201.361 53.9794 201.13 54.5417 201.13 55.1977C201.13 55.7132 201.268 56.088 201.546 56.4629C201.824 56.7909 202.333 57.2126 203.12 57.6343L204.091 58.1966C205.48 58.9932 206.452 59.7429 206.961 60.3989C207.47 61.0549 207.747 61.8046 207.747 62.7417C207.747 64.0537 207.285 65.1314 206.313 65.8812C205.341 66.6777 204.045 67.0526 202.379 67.0526C201.268 67.0994 199.926 66.912 198.445 66.5372Z" fill="#232323"/>
<path d="M86.8193 29.9417C86.8193 28.1611 87.1433 26.4274 87.7449 24.6468C88.3928 22.8662 89.3184 21.3199 90.5217 19.9142C91.7249 18.5085 93.2059 17.3839 94.9645 16.5405C96.7231 15.6971 98.7131 15.2285 100.935 15.2285C103.573 15.2285 105.841 15.8377 107.738 17.0091C109.635 18.1805 111.07 19.7268 111.996 21.6479L108.386 24.0845C107.969 23.1942 107.46 22.4445 106.905 21.8354C106.35 21.2262 105.702 20.7577 105.008 20.3828C104.313 20.0079 103.619 19.7737 102.879 19.6331C102.138 19.4925 101.444 19.3988 100.75 19.3988C99.2222 19.3988 97.8801 19.7268 96.7231 20.3359C95.5661 20.9451 94.5942 21.7885 93.8075 22.8194C93.0207 23.8502 92.4191 24.9748 92.0489 26.2868C91.6324 27.5519 91.4473 28.8171 91.4473 30.1291C91.4473 31.5817 91.6786 32.9405 92.1414 34.2525C92.6042 35.5645 93.2521 36.6891 94.0852 37.7199C94.9182 38.7039 95.8901 39.5005 97.047 40.1097C98.204 40.7188 99.4536 40.9999 100.842 40.9999C101.537 40.9999 102.277 40.9062 103.018 40.7188C103.758 40.5314 104.499 40.2502 105.193 39.8285C105.887 39.4068 106.535 38.9382 107.136 38.3291C107.738 37.7199 108.201 36.9702 108.571 36.1268L112.366 38.3291C111.903 39.4537 111.255 40.3908 110.376 41.2342C109.543 42.0777 108.571 42.7805 107.507 43.3897C106.442 43.9519 105.332 44.4205 104.128 44.7017C102.925 45.0297 101.768 45.1702 100.611 45.1702C98.5743 45.1702 96.6768 44.7485 95.0108 43.8582C93.2984 42.9679 91.8638 41.7965 90.6142 40.3908C89.3647 38.9851 88.4391 37.3451 87.7449 35.5177C87.1433 33.6902 86.8193 31.8159 86.8193 29.9417Z" fill="#2767B1"/>
<path d="M132.636 45.1234C130.554 45.1234 128.656 44.7017 126.944 43.8582C125.232 43.0148 123.751 41.8902 122.548 40.4845C121.298 39.0788 120.372 37.4857 119.678 35.7051C119.03 33.9245 118.66 32.0502 118.66 30.1759C118.66 28.2079 119.03 26.3337 119.725 24.5062C120.419 22.7257 121.391 21.1325 122.64 19.7268C123.89 18.3211 125.371 17.2434 127.083 16.4468C128.795 15.6502 130.646 15.2285 132.683 15.2285C134.765 15.2285 136.663 15.6502 138.375 16.5405C140.087 17.4308 141.568 18.5554 142.772 19.9611C143.975 21.3668 144.947 22.9599 145.595 24.7405C146.243 26.5211 146.613 28.3485 146.613 30.2228C146.613 32.1908 146.243 34.0651 145.548 35.8925C144.854 37.6731 143.882 39.2662 142.633 40.6251C141.383 41.9839 139.902 43.1085 138.19 43.9051C136.524 44.7017 134.673 45.1234 132.636 45.1234ZM123.381 30.1759C123.381 31.5817 123.612 32.8937 124.029 34.2057C124.445 35.5177 125.093 36.6422 125.88 37.6731C126.666 38.6571 127.685 39.4537 128.795 40.0628C129.952 40.6719 131.248 40.9531 132.636 40.9531C134.117 40.9531 135.413 40.6251 136.57 40.0159C137.727 39.4068 138.653 38.5634 139.486 37.5325C140.273 36.5017 140.874 35.3771 141.291 34.0651C141.707 32.7999 141.892 31.4879 141.892 30.1759C141.892 28.7702 141.661 27.4114 141.244 26.1462C140.828 24.8342 140.18 23.7097 139.393 22.7257C138.607 21.7417 137.635 20.9451 136.478 20.3359C135.321 19.7268 134.071 19.4457 132.683 19.4457C131.202 19.4457 129.906 19.7737 128.749 20.3828C127.592 20.9919 126.62 21.8354 125.833 22.8194C125.047 23.8034 124.445 24.9748 124.029 26.2399C123.612 27.5051 123.381 28.8171 123.381 30.1759Z" fill="#2767B1"/>
<path d="M155.498 44.8892V15.416H165.818C168.179 15.416 170.215 15.7909 171.973 16.5874C173.732 17.384 175.213 18.4149 176.416 19.7269C177.62 21.0389 178.499 22.632 179.1 24.4126C179.702 26.1932 179.98 28.1143 179.98 30.1292C179.98 32.3783 179.656 34.3932 178.962 36.2206C178.314 38.048 177.342 39.5943 176.092 40.8594C174.843 42.1246 173.362 43.1554 171.603 43.8583C169.845 44.5612 167.901 44.936 165.726 44.936H155.498V44.8892ZM175.352 30.1292C175.352 28.5829 175.12 27.1303 174.704 25.8652C174.287 24.5532 173.64 23.4286 172.853 22.5383C172.02 21.6012 171.048 20.8983 169.845 20.336C168.688 19.8206 167.346 19.5394 165.818 19.5394H160.126V40.8126H165.865C167.392 40.8126 168.734 40.5314 169.937 40.016C171.14 39.5006 172.112 38.704 172.945 37.7669C173.732 36.8297 174.38 35.7052 174.75 34.3932C175.167 33.0343 175.352 31.6286 175.352 30.1292Z" fill="#2767B1"/>
<path d="M208.951 40.8126V44.936H188.958V15.416H208.58V19.5394H193.586V27.9269H206.59V31.7692H193.586V40.7657L208.951 40.8126Z" fill="#2767B1"/>
</svg>
